<svg width="821" height="839" viewBox="0 0 821 839" fill="none" xmlns="http://www.w3.org/2000/svg">
<g clip-path="url(#clip0_311:27)">
<g opacity="0.8">
<circle cx="612.87" cy="229.121" r="399.008" transform="rotate(-30 612.87 229.121)" stroke="#C3CA00" stroke-width="1.99006" stroke-dasharray="7.96 11.94"/>
<path d="M957.99 29.8661C1033.69 160.982 988.958 328.526 858.082 404.088C727.206 479.649 559.742 434.616 484.043 303.5C408.343 172.384 453.074 4.83974 583.951 -70.7217C714.827 -146.283 882.291 -101.25 957.99 29.8661Z" stroke="#C3CA00" stroke-width="0.995032"/>
<path d="M957.99 29.8661C1097.71 271.87 1014.99 581.207 773.222 720.791C531.457 860.374 222.201 777.346 82.4796 535.342C-57.2415 293.338 25.4828 -15.9988 267.248 -155.582C509.013 -295.165 818.269 -212.138 957.99 29.8661Z" stroke="#C3CA00" stroke-width="0.995032"/>
</g>
</g>
<defs>
<clipPath id="clip0_311:27">
<rect width="821" height="839" fill="white"/>
</clipPath>
</defs>
</svg>
