<svg width="437" height="674" viewBox="0 0 437 674" fill="none" xmlns="http://www.w3.org/2000/svg">
<g clip-path="url(#clip0_311:28)">
<g opacity="0.8">
<circle cx="332.685" cy="473.636" r="224.749" transform="rotate(60 332.685 473.636)" stroke="#C3CA00" stroke-width="1.99006" stroke-dasharray="7.96 11.94"/>
<path d="M444.811 667.844C371.061 710.423 276.822 685.262 234.32 611.648C191.819 538.033 217.149 443.839 290.899 401.259C364.649 358.68 458.889 383.841 501.39 457.455C543.891 531.07 518.561 625.264 444.811 667.844Z" stroke="#C3CA00" stroke-width="0.995032"/>
<path d="M444.811 667.843C308.601 746.484 134.494 699.923 55.9308 563.848C-22.6321 427.773 24.0988 253.712 160.309 175.071C296.518 96.4301 470.626 142.991 549.189 279.066C627.752 415.141 581.021 589.203 444.811 667.843Z" stroke="#C3CA00" stroke-width="0.995032"/>
</g>
</g>
<defs>
<clipPath id="clip0_311:28">
<rect width="437" height="674" fill="white"/>
</clipPath>
</defs>
</svg>
