<svg width="370" height="10" viewBox="0 0 370 10" fill="none" xmlns="http://www.w3.org/2000/svg">
<path fill-rule="evenodd" clip-rule="evenodd" d="M7.93331 6.58045C7.93331 6.58077 7.93331 6.5814 7.93331 6.58172C7.93331 6.62411 7.99089 6.66523 8.08367 6.70285C7.11593 6.70571 6.14499 6.70029 5.17405 6.67989C4.92772 6.67256 4.68299 6.66396 4.44145 6.65471C5.60434 6.62762 6.76882 6.60372 7.93331 6.58045ZM31.0311 6.71814C31.1862 6.72611 31.3398 6.73409 31.4966 6.74143C30.4728 6.74461 29.4475 6.74811 28.4238 6.75162C29.2939 6.74046 30.1625 6.72929 31.0311 6.71814ZM56.9873 6.38664C66.0872 6.26328 75.1888 6.13832 84.2887 6.01401C89.9992 5.93623 95.7112 5.84984 101.43 5.78737C111.587 5.67612 121.746 5.56456 131.903 5.45363C137.199 5.39593 142.494 5.33122 147.793 5.28787C155.909 5.22157 164.024 5.15463 172.14 5.08769C180.48 5.11128 188.821 5.13615 197.162 5.16197C202.215 5.17695 207.27 5.19831 212.325 5.20596C218.632 5.21552 224.94 5.2254 231.247 5.23528C222.853 5.31529 214.458 5.39531 206.064 5.47563C190.778 5.62099 175.49 5.75007 160.201 5.88459C144.706 6.02102 129.211 6.14407 113.714 6.27158C108.367 6.31588 103.021 6.35189 97.6723 6.39078C94.6987 6.41246 91.7251 6.43413 88.7515 6.45549C86.7792 6.45517 84.8086 6.4539 82.8363 6.45358C81.024 6.45358 79.2117 6.44561 77.3994 6.44115C72.7206 6.43063 68.0419 6.41915 63.3632 6.40831C61.1046 6.40257 58.8492 6.39715 56.5922 6.39173C56.7234 6.39014 56.8561 6.38855 56.9873 6.38664ZM107.711 4.36635C111.956 4.32141 116.203 4.2755 120.449 4.23024C125.225 4.17892 130.004 4.11963 134.785 4.0801C140.506 4.03293 146.227 3.98575 151.947 3.93857C159.155 3.8965 166.363 3.85442 173.57 3.81235C169.491 3.87674 165.412 3.94113 161.334 4.0052C156.746 4.07756 152.154 4.14226 147.572 4.22545C145.576 4.26179 143.582 4.29813 141.587 4.33447C141.454 4.33415 141.323 4.33415 141.192 4.33383C136.99 4.32905 132.784 4.32395 128.581 4.31917C127.244 4.31694 125.905 4.31088 124.569 4.31598C118.204 4.34053 111.841 4.36476 105.477 4.38962C106.222 4.38197 106.966 4.37464 107.711 4.36635ZM90.9333 2.3808C85.0965 2.36678 79.2581 2.35275 73.4196 2.33872C76.1517 2.28645 78.8822 2.23418 81.6126 2.1819C91.2916 1.99702 100.969 1.8115 110.648 1.6263C111.812 1.60367 112.975 1.58168 114.143 1.55937C119.234 1.60622 124.326 1.65372 129.419 1.70057C131.959 1.72384 134.488 1.75221 137.023 1.78791C152.846 2.00945 168.669 2.23003 184.49 2.45125C185.281 2.46241 186.071 2.47388 186.861 2.48599C180.216 2.4828 173.57 2.47994 166.927 2.47707C154.622 2.47101 142.316 2.45061 130.012 2.43499C116.987 2.41809 103.962 2.41204 90.9333 2.3808ZM177.011 0.927267C178.316 0.914198 179.628 0.916422 180.936 0.913872C185.441 0.904309 189.947 0.894755 194.451 0.884873C204.442 0.863835 214.433 0.842475 224.424 0.821118C225.75 0.818568 227.071 0.816652 228.395 0.822071C232.454 0.839603 236.513 0.856814 240.571 0.874027C250.487 0.915784 260.406 0.957548 270.323 0.999943C271.884 1.00664 273.444 1.01779 275.005 1.03023C280.015 1.06975 285.025 1.10959 290.036 1.14944C296.95 1.20395 303.866 1.25208 310.778 1.32285C318.641 1.40317 326.511 1.46915 334.37 1.57338C337.009 1.60845 339.65 1.64287 342.289 1.67794C343.807 1.69802 345.33 1.713 346.843 1.7385C347.191 1.74424 347.538 1.74998 347.885 1.75604C345.465 1.77803 343.044 1.79939 340.623 1.82266C340.309 1.81277 339.996 1.80353 339.681 1.79747C339.1 1.78536 338.531 1.78313 337.948 1.78249C337.934 1.78249 337.919 1.78249 337.903 1.78249C336.723 1.78249 335.543 1.8013 334.367 1.81692C334.076 1.82106 333.783 1.82361 333.492 1.82712C332.94 1.68782 332.103 1.59475 331.166 1.59794C326.198 1.61324 321.231 1.6177 316.266 1.66073C312.056 1.69707 307.849 1.73372 303.641 1.77006C297.964 1.81915 292.289 1.86569 286.61 1.91191C280.388 1.96227 274.169 2.01392 267.946 2.06651C266.241 2.08054 264.536 2.09519 262.831 2.10986C258.862 2.10731 254.894 2.10475 250.925 2.10252C247.083 2.09965 243.243 2.09711 239.402 2.09456C238.239 2.0936 237.081 2.09678 235.918 2.08722C228.966 2.02889 222.015 1.97152 215.061 1.91382C208.174 1.85645 201.288 1.80002 194.401 1.74232C193.626 1.73531 192.855 1.72448 192.08 1.7146C189.483 1.67954 186.885 1.64479 184.286 1.60973C173.484 1.46469 162.684 1.31997 151.882 1.17526C160.259 1.0927 168.634 1.01078 177.011 0.927267ZM278.932 3.53662C271.955 3.58539 264.982 3.64819 258.01 3.70557C241.728 3.83817 225.449 3.98065 209.17 4.12504C203.365 4.17636 197.561 4.22355 191.754 4.27997C188.118 4.31503 184.482 4.35105 180.847 4.38643C178.975 4.38324 177.102 4.38037 175.231 4.37782C184.671 4.23279 194.113 4.08839 203.556 3.94399C205.354 3.91658 207.16 3.90128 208.957 3.88088C213.86 3.8235 218.764 3.76645 223.667 3.70939C228.616 3.65169 233.564 3.59432 238.514 3.53662C242.628 3.52132 246.744 3.50474 250.858 3.48466C260.152 3.43812 269.447 3.39222 278.742 3.346C283.637 3.32177 288.531 3.30266 293.423 3.26727C296.214 3.24751 299.005 3.2271 301.798 3.20702C302.132 3.27587 302.561 3.33166 303.012 3.34983C303.138 3.35493 303.265 3.36035 303.39 3.36545C295.237 3.42218 287.084 3.47957 278.932 3.53662ZM223.873 5.8728C212.827 6.05895 201.782 6.24607 190.737 6.43286C188.718 6.4335 186.698 6.43414 184.681 6.43541C178.113 6.43955 171.547 6.44944 164.979 6.44944C160.153 6.44944 155.326 6.45134 150.498 6.45325C152.36 6.43923 154.223 6.42521 156.085 6.41119C170.752 6.30217 185.418 6.18359 200.088 6.07043C207.334 6.01401 214.58 5.9493 221.826 5.88937C222.511 5.88364 223.192 5.87854 223.877 5.8728C223.875 5.8728 223.875 5.8728 223.873 5.8728ZM0.0346418 6.98686C-0.0789275 7.0675 0.0890282 7.18067 0.504916 7.21733C0.696864 7.23454 0.895209 7.25174 1.09196 7.26832C1.21032 7.27629 1.32549 7.28523 1.44386 7.29351C1.6838 7.30021 1.92053 7.30594 2.16047 7.312C2.41 7.31869 2.70912 7.28649 2.88027 7.25238C2.90107 7.24824 2.92026 7.2441 2.93786 7.23964C23.0092 7.18322 43.0806 7.12456 63.1536 7.06559C64.5372 7.06113 65.9209 7.05157 67.3029 7.04232C71.7833 7.01204 76.2637 6.98175 80.7409 6.95211C81.4751 6.94733 82.2093 6.94224 82.9451 6.93746C84.2615 6.94033 85.5796 6.94065 86.8976 6.9416C91.1845 6.94638 95.4713 6.95084 99.7565 6.9553C107.511 6.96359 115.266 6.97124 123.021 6.98016C134.346 6.99291 145.671 6.99738 156.995 7.00312C152.386 7.08154 147.776 7.16091 143.167 7.24219C140.483 7.28937 137.801 7.33686 135.117 7.38435C130.766 7.39073 126.415 7.39647 122.064 7.40316C117.908 7.40858 113.756 7.40826 109.602 7.40762C107.758 7.4073 105.91 7.40731 104.067 7.40731C102.1 7.40763 100.134 7.40762 98.1666 7.40762C93.675 7.40762 89.1818 7.40762 84.6886 7.41112C80.0658 7.41495 75.4447 7.41909 70.8235 7.4226C67.2021 7.42611 63.5839 7.42611 59.9641 7.43408C55.8132 7.44396 51.6639 7.45926 47.5146 7.47137C47.1259 7.47233 46.8012 7.53448 46.8012 7.61289C46.8012 7.69354 47.1259 7.75125 47.5146 7.75507C48.2568 7.76272 48.999 7.77516 49.7428 7.7742C50.1987 7.77388 50.6546 7.77323 51.1121 7.77292C52.6956 7.77132 54.276 7.76942 55.8596 7.76751C57.4688 7.76591 59.0763 7.76367 60.6871 7.76048C65.9737 7.74965 71.2602 7.7385 76.5468 7.72702C77.7401 7.72702 78.9334 7.72702 80.1282 7.72702C86.0067 7.7267 91.8851 7.73052 97.7619 7.73402C103.412 7.73753 109.06 7.74232 114.709 7.74519C105.558 7.9068 96.4086 8.06872 87.2575 8.23033C71.225 8.51307 55.1958 8.80378 39.1649 9.09513C38.5427 9.10629 38.0148 9.13689 37.5621 9.22709C37.1382 9.31188 36.8967 9.42758 36.8967 9.54712C36.8967 9.66665 37.1382 9.78268 37.5621 9.86652C37.9524 9.94461 38.5938 10.0097 39.1649 9.99882C57.9854 9.65774 76.8059 9.32049 95.6297 8.98993C113.065 8.68361 130.499 8.37601 147.932 8.07064C155.874 7.93198 163.821 7.8016 171.768 7.67091C176.601 7.64509 181.435 7.61896 186.269 7.5925C190.577 7.56955 194.88 7.5466 199.187 7.52365C200.502 7.51632 201.819 7.51059 203.133 7.49688C211.848 7.40667 220.564 7.31549 229.278 7.22528C233.57 7.18098 237.865 7.13637 242.157 7.09174C243.507 7.07772 244.853 7.06496 246.203 7.04806C248.321 7.02129 250.441 6.99484 252.56 6.96806C255.961 6.95722 259.361 6.94671 262.762 6.93651C268.215 6.91897 273.67 6.90207 279.123 6.8753C293.216 6.80581 307.312 6.73695 321.406 6.68627C322.938 6.68053 324.472 6.67894 325.996 6.70604C326.849 6.73409 327.669 6.77744 328.492 6.83481C329.005 6.86956 329.643 6.84565 330.101 6.79242C330.566 6.73791 330.917 6.64769 331.059 6.54378C331.208 6.43699 331.129 6.3197 330.848 6.22375C330.555 6.12366 330.13 6.07203 329.602 6.03251C329.344 6.01306 329.088 5.9952 328.829 5.9783C337.865 5.86164 346.899 5.7469 355.934 5.63342C357.441 5.61461 358.949 5.60345 360.454 5.59038C361.86 5.57859 363.258 5.55946 364.655 5.52918C365.213 5.51706 365.766 5.50016 366.318 5.48295C367.113 5.45809 367.899 5.41506 368.684 5.38159C369.13 5.36246 369.54 5.29298 369.764 5.21584C370.024 5.12755 370.042 5.03702 369.948 4.93884C369.844 4.83174 369.516 4.75428 369.191 4.6714C369.132 4.65642 369.074 4.64112 369.015 4.62582C368.788 4.58056 368.521 4.54996 368.212 4.53274C368.055 4.52414 367.894 4.51967 367.732 4.51967C367.411 4.51967 367.091 4.53656 366.812 4.56908C366.427 4.61402 366.134 4.68639 365.998 4.77086C365.986 4.7715 365.974 4.77213 365.962 4.77277C365.456 4.79731 364.946 4.81452 364.434 4.8295C361.388 4.90186 358.32 4.91843 355.264 4.96561C353.027 5.00035 350.794 5.03479 348.557 5.06985C345.751 5.11384 342.942 5.15751 340.132 5.20022C332.905 5.31115 325.678 5.42302 318.451 5.53108C304.903 5.73349 291.359 5.9442 277.806 6.13323C276.176 6.15618 274.545 6.17881 272.915 6.20144C271.129 6.21196 269.341 6.21802 267.556 6.2263C263.762 6.24415 259.969 6.26232 256.177 6.28018C260.884 6.20463 265.592 6.1294 270.299 6.0529C275.032 5.97608 279.769 5.90277 284.504 5.82914C291.766 5.7163 299.026 5.5958 306.291 5.49061C313.141 5.39116 319.987 5.28851 326.834 5.18874C330.131 5.14157 333.431 5.09504 336.728 5.04818C338.436 5.02427 340.143 4.99844 341.854 4.97899C342.995 4.96624 344.135 4.95159 345.273 4.93055C346.365 4.90983 347.447 4.87254 348.531 4.84321C348.968 4.8311 349.393 4.81707 349.823 4.79858C350.315 4.77691 350.767 4.72878 351.223 4.68957C351.769 4.64272 352.154 4.55122 352.498 4.46006C352.735 4.39822 352.855 4.33575 353.01 4.26403C353.096 4.22322 353.181 4.18242 353.267 4.14162C353.28 4.13174 353.287 4.12186 353.296 4.1123C354.341 4.03389 355.102 3.82828 355.102 3.59877C355.102 3.29532 353.853 3.05721 352.352 3.05083C350.329 3.04286 348.304 3.0384 346.28 3.03745C345.801 3.03713 345.346 3.06294 344.95 3.10693C343.691 3.11522 342.43 3.12255 341.173 3.1302C339.006 3.14327 336.84 3.15635 334.672 3.16973C335.704 3.13786 336.736 3.1047 337.768 3.0725C340.73 3.06167 343.692 3.04988 346.655 3.03458C347.495 3.03011 348.246 2.94819 348.717 2.82292C348.793 2.82388 348.87 2.8242 348.945 2.82579C349.358 2.83886 349.763 2.8548 350.172 2.87392C351.05 2.91409 351.951 2.83407 352.317 2.67278C352.939 2.66768 353.563 2.66227 354.185 2.65398C354.835 2.64473 355.406 2.60776 355.876 2.51437C356.324 2.42511 356.578 2.30303 356.578 2.17648C356.578 2.07448 356.391 1.97566 356.089 1.89438C356.134 1.8947 356.179 1.89565 356.222 1.89629C357.964 1.92561 359.712 1.93805 361.448 1.97726C362.47 2.01041 363.501 2.04865 364.479 2.11623C364.532 2.15097 364.576 2.18605 364.615 2.22175C364.621 2.24183 364.627 2.26222 364.634 2.28262C364.672 2.39929 364.843 2.50225 365.267 2.5864C365.669 2.66705 366.224 2.71295 366.792 2.71295C367.363 2.71295 367.916 2.66705 368.318 2.5864C368.689 2.51309 369.005 2.39068 368.951 2.28262C368.898 2.17743 368.831 2.07415 368.74 1.97056C368.65 1.8711 368.375 1.7742 368.178 1.68208C368.084 1.65785 367.993 1.63332 367.899 1.60877C367.711 1.54566 367.456 1.49529 367.137 1.45704C366.747 1.39998 366.358 1.35918 365.901 1.32539C364.963 1.25654 363.983 1.22371 363.002 1.18641C361.539 1.12999 360.032 1.11692 358.549 1.10131C356.209 1.07676 353.874 1.03341 351.538 0.99612C347.904 0.938425 344.273 0.888056 340.636 0.841517C337.244 0.797847 333.857 0.747488 330.465 0.713062C325.64 0.663655 320.809 0.614883 315.983 0.565794C312.872 0.534237 309.761 0.495666 306.65 0.470803C303.041 0.442433 299.432 0.413107 295.824 0.3841C290.281 0.340111 284.737 0.295806 279.195 0.25118C276.81 0.232692 274.428 0.205276 272.041 0.194438C263.452 0.157462 254.863 0.120486 246.275 0.0831916C241.325 0.0618348 236.372 0.0404741 231.422 0.019436C229.941 0.0127421 228.453 0 226.967 0C226.804 0 226.641 0.000313544 226.478 0.000632303C210.231 0.0334644 193.978 0.0618331 177.731 0.0994466C177.222 0.100403 176.712 0.109008 176.205 0.114427C174.815 0.127815 173.428 0.141208 172.036 0.154914C167.421 0.200178 162.807 0.245442 158.194 0.291025C147.281 0.39749 136.371 0.505226 125.458 0.612011C122.395 0.642293 119.335 0.671943 116.272 0.702226C115.338 0.71147 114.413 0.72995 113.481 0.7478C111.062 0.725806 108.644 0.704134 106.225 0.682459C98.197 0.609782 90.1703 0.537424 82.1453 0.465384C80.2034 0.447853 78.2631 0.430321 76.3229 0.413108C74.261 0.394301 72.1928 0.386972 70.1277 0.377728C65.6841 0.35669 61.2389 0.344256 56.7953 0.32513C56.7825 0.32513 56.7697 0.32513 56.7553 0.32513C55.6868 0.32513 54.8023 0.511923 54.8023 0.722304C54.8023 0.942247 55.7092 1.1147 56.7953 1.11948C61.2389 1.13892 65.6841 1.15295 70.1277 1.17335C72.1928 1.18291 74.261 1.19024 76.3229 1.20968C78.2631 1.22753 80.2034 1.24507 82.1453 1.26355C83.1338 1.27248 84.1224 1.28204 85.1109 1.29097C75.0576 1.48318 65.0043 1.67635 54.951 1.86856C51.7135 1.93072 48.4776 1.99255 45.2416 2.05439C42.3176 2.11049 39.3984 2.1768 36.4824 2.24724C32.3043 2.23417 28.1279 2.21919 23.9514 2.20548C22.9869 2.20197 22.1855 2.36774 22.1855 2.55708C22.1855 2.57238 22.1983 2.58704 22.2079 2.60202C20.5571 2.64314 18.908 2.68522 17.2556 2.72538C17.0732 2.73016 16.8893 2.73495 16.7069 2.73973C16.3534 2.75949 16.0495 2.79519 15.792 2.84587C15.4065 2.92269 15.1874 3.02851 15.1874 3.13689C15.1874 3.24591 15.4065 3.35174 15.792 3.42856C16.1423 3.49773 16.7453 3.56149 17.2556 3.54906C22.8829 3.41199 28.5022 3.26695 34.1294 3.12957C36.46 3.07219 38.7922 3.01322 41.1276 2.96158C54.7463 3.0027 68.365 3.04 81.9869 3.07634C93.7486 3.10726 105.512 3.12861 117.273 3.14901C118.894 3.1522 120.516 3.15539 122.136 3.15825C109.899 3.27524 97.6627 3.39222 85.426 3.50889C77.9352 3.58061 70.4461 3.65201 62.9553 3.72373C52.5517 3.82286 42.1561 3.95451 31.7541 4.07404C31.0823 4.08201 30.484 4.12282 29.9978 4.21908C29.5355 4.31184 29.27 4.43871 29.27 4.5694C29.27 4.82791 30.4024 5.08036 31.7541 5.06442C40.331 4.96625 48.9063 4.86137 57.4847 4.77148C50.4786 4.86647 43.4725 4.96114 36.4696 5.05613C31.471 5.12371 26.5091 5.25887 21.5344 5.37044C21.1106 5.37936 20.7618 5.39784 20.4483 5.45968C20.1604 5.51674 19.9973 5.59548 19.9973 5.67612C19.9973 5.75741 20.1604 5.83551 20.4483 5.89256C20.7091 5.94484 21.1521 5.99075 21.5344 5.98278C26.5539 5.87121 31.5653 5.73668 36.6072 5.66879C40.371 5.61906 44.1331 5.56967 47.8937 5.51962C56.9169 5.40009 65.9369 5.2815 74.96 5.16133C76.1549 5.14571 77.3466 5.12531 78.5447 5.12149C81.5503 5.11224 84.5542 5.10236 87.5598 5.09312C92.5233 5.0775 97.4868 5.06156 102.45 5.04594C98.8256 5.11192 95.2026 5.17759 91.5795 5.24357C87.7118 5.3137 83.8456 5.39052 79.9683 5.44248C72.7382 5.53907 65.5098 5.63659 58.2813 5.7335C58.1438 5.65668 57.7839 5.59421 57.3632 5.59421C57.3456 5.59421 57.328 5.59453 57.3104 5.59453C47.5034 5.71087 37.6981 5.82946 27.8943 5.95537C27.5152 5.95983 27.1809 5.99233 26.9858 6.05895C26.901 6.08764 26.8674 6.12079 26.8578 6.1549C26.7554 6.15618 26.6531 6.15714 26.5507 6.15809C26.5795 6.14088 26.5987 6.12239 26.5987 6.10262C26.5987 6.00987 26.186 5.91456 25.6949 5.92157C21.6752 5.9815 17.6603 6.04685 13.6454 6.1106C9.43531 6.17786 5.23964 6.27253 1.04877 6.3723C0.717659 6.37995 0.437732 6.40194 0.25858 6.46282C0.03784 6.53741 0.133815 6.6203 0.400943 6.68341C0.628082 6.73632 0.828027 6.79402 1.11275 6.83545C1.11595 6.83577 1.12075 6.83641 1.12395 6.83705C1.09036 6.83705 1.05517 6.83704 1.01997 6.83736C0.564098 6.83864 0.154609 6.89856 0.0346418 6.98686Z" fill="black"/>
</svg>
