<svg width="370" height="70" viewBox="0 0 370 70" fill="none" xmlns="http://www.w3.org/2000/svg">
<path fill-rule="evenodd" clip-rule="evenodd" d="M7.93331 61.4878V61.489C7.93331 61.5308 7.99089 61.5714 8.08367 61.6084C7.11593 61.6113 6.14499 61.6059 5.17405 61.5858C4.92772 61.5786 4.68299 61.5701 4.44145 61.561C5.60434 61.5343 6.76882 61.5107 7.93331 61.4878ZM31.0311 61.6235C31.1862 61.6314 31.3398 61.6392 31.4966 61.6465C30.4728 61.6496 29.4475 61.6531 28.4238 61.6565C29.2939 61.6455 30.1625 61.6345 31.0311 61.6235ZM56.9873 61.2967C66.0872 61.1751 75.1888 61.0519 84.2887 60.9293C89.9992 60.8526 95.7112 60.7675 101.43 60.7059C111.587 60.5962 121.746 60.4862 131.903 60.3768C137.199 60.3199 142.494 60.2561 147.793 60.2134C155.909 60.148 164.024 60.082 172.14 60.016C180.48 60.0393 188.82 60.0638 197.162 60.0893C202.215 60.104 207.27 60.1251 212.325 60.1326C218.632 60.1421 224.94 60.1518 231.247 60.1615C222.853 60.2404 214.458 60.3193 206.064 60.3985C190.778 60.5418 175.49 60.6691 160.201 60.8017C144.706 60.9362 129.211 61.0575 113.714 61.1832C108.367 61.2269 103.021 61.2624 97.6723 61.3008C94.6987 61.3221 91.7251 61.3435 88.7515 61.3646C86.7792 61.3643 84.8086 61.363 82.8363 61.3627C81.024 61.3627 79.2117 61.3548 77.3994 61.3504C72.7206 61.3401 68.0419 61.3287 63.3632 61.3181C61.1046 61.3124 58.8492 61.3071 56.5922 61.3017C56.7234 61.3001 56.8561 61.2986 56.9873 61.2967ZM107.711 59.3049C111.956 59.2605 116.203 59.2153 120.449 59.1707C125.225 59.1201 130.004 59.0616 134.785 59.0226C140.506 58.9761 146.227 58.9296 151.947 58.8831C159.155 58.8416 166.363 58.8001 173.57 58.7587C169.491 58.8221 165.412 58.8856 161.334 58.9488C156.746 59.0201 152.154 59.0839 147.572 59.1659C145.576 59.2018 143.582 59.2376 141.587 59.2734C141.454 59.2731 141.323 59.2731 141.192 59.2728C136.99 59.2681 132.784 59.2631 128.581 59.2583C127.244 59.2561 125.905 59.2502 124.569 59.2552C118.204 59.2794 111.841 59.3033 105.477 59.3278C106.222 59.3203 106.966 59.313 107.711 59.3049ZM90.9333 57.3473C85.0965 57.3334 79.2581 57.3196 73.4196 57.3058C76.1517 57.2542 78.8822 57.2027 81.6126 57.1512C91.2916 56.9689 100.969 56.786 110.648 56.6034C111.812 56.5811 112.975 56.5594 114.143 56.5374C119.234 56.5836 124.326 56.6304 129.419 56.6766C131.959 56.6996 134.488 56.7275 137.023 56.7627C152.846 56.9811 168.669 57.1986 184.49 57.4167C185.281 57.4277 186.071 57.439 186.861 57.451C180.216 57.4478 173.57 57.445 166.927 57.4422C154.622 57.4362 142.316 57.4161 130.012 57.4007C116.987 57.384 103.962 57.3781 90.9333 57.3473ZM177.011 55.9142C178.316 55.9013 179.628 55.9035 180.936 55.901C185.441 55.8916 189.947 55.8822 194.451 55.8724C204.442 55.8517 214.433 55.8306 224.424 55.8096C225.75 55.807 227.071 55.8052 228.395 55.8105C232.454 55.8278 236.513 55.8447 240.571 55.8617C250.487 55.9029 260.406 55.9441 270.323 55.9859C271.884 55.9925 273.444 56.0035 275.005 56.0157C280.015 56.0547 285.025 56.094 290.036 56.1332C296.95 56.187 303.866 56.2344 310.778 56.3042C318.641 56.3834 326.511 56.4485 334.37 56.5512C337.009 56.5858 339.65 56.6197 342.289 56.6543C343.807 56.6741 345.33 56.6889 346.843 56.714C347.191 56.7197 347.538 56.7253 347.885 56.7313C345.465 56.753 343.045 56.774 340.623 56.797C340.309 56.7872 339.996 56.7781 339.681 56.7722C339.1 56.7602 338.531 56.758 337.948 56.7574C337.934 56.7574 337.919 56.7574 337.903 56.7574C336.723 56.7574 335.543 56.7759 334.367 56.7913C334.076 56.7954 333.783 56.7979 333.492 56.8014C332.94 56.6641 332.103 56.5723 331.166 56.5754C326.198 56.5905 321.231 56.5949 316.266 56.6373C312.056 56.6732 307.849 56.7093 303.641 56.7451C297.964 56.7935 292.289 56.8394 286.61 56.885C280.388 56.9346 274.169 56.9856 267.946 57.0374C266.241 57.0512 264.536 57.0657 262.831 57.0801C258.862 57.0776 254.894 57.0751 250.925 57.0729C247.083 57.0701 243.243 57.0676 239.402 57.0651C238.239 57.0641 237.081 57.0673 235.918 57.0578C228.966 57.0003 222.015 56.9438 215.061 56.8869C208.174 56.8303 201.288 56.7747 194.401 56.7178C193.626 56.7109 192.855 56.7002 192.08 56.6905C189.483 56.6559 186.885 56.6216 184.286 56.5871C173.484 56.4441 162.684 56.3014 151.882 56.1587C160.259 56.0773 168.634 55.9965 177.011 55.9142ZM278.932 58.4868C271.955 58.5349 264.982 58.5968 258.01 58.6534C241.728 58.7841 225.449 58.9246 209.17 59.0669C203.365 59.1175 197.561 59.1641 191.754 59.2197C188.118 59.2543 184.482 59.2898 180.847 59.3246C178.975 59.3215 177.102 59.3187 175.231 59.3162C184.671 59.1732 194.113 59.0308 203.556 58.8884C205.354 58.8614 207.16 58.8463 208.957 58.8262C213.86 58.7696 218.764 58.7134 223.667 58.6571C228.616 58.6003 233.564 58.5437 238.514 58.4868C242.628 58.4717 246.744 58.4554 250.858 58.4356C260.152 58.3897 269.447 58.3444 278.742 58.2989C283.637 58.275 288.531 58.2561 293.423 58.2213C296.214 58.2018 299.005 58.1816 301.798 58.1618C302.132 58.2297 302.561 58.2847 303.012 58.3027C303.138 58.3077 303.265 58.313 303.39 58.318C295.237 58.374 287.084 58.4306 278.932 58.4868ZM223.873 60.7901C212.827 60.9736 201.782 61.1581 190.737 61.3423C188.718 61.3429 186.698 61.3435 184.681 61.3448C178.113 61.3489 171.547 61.3586 164.979 61.3586C160.153 61.3586 155.326 61.3605 150.498 61.3624C152.36 61.3485 154.223 61.3347 156.085 61.3209C170.752 61.2134 185.418 61.0965 200.088 60.9849C207.334 60.9293 214.58 60.8655 221.826 60.8064C222.511 60.8008 223.192 60.7957 223.877 60.7901H223.873ZM0.0346418 61.8884C-0.0789275 61.968 0.0890281 62.0795 0.504916 62.1157C0.696864 62.1326 0.895209 62.1496 1.09196 62.1659C1.21032 62.1738 1.32549 62.1826 1.44386 62.1908C1.6838 62.1974 1.92053 62.203 2.16047 62.209C2.41 62.2156 2.70912 62.1839 2.88027 62.1502C2.90107 62.1462 2.92026 62.1421 2.93786 62.1377C23.0092 62.082 43.0806 62.0242 63.1536 61.9661C64.5372 61.9617 65.9209 61.9522 67.3029 61.9431C71.7833 61.9133 76.2637 61.8834 80.7409 61.8542C81.4751 61.8495 82.2093 61.8445 82.9451 61.8397C84.2615 61.8426 85.5796 61.8429 86.8976 61.8438C91.1845 61.8485 95.4713 61.8529 99.7565 61.8573C107.511 61.8655 115.266 61.8731 123.021 61.8819C134.346 61.8944 145.671 61.8988 156.995 61.9045C152.386 61.9818 147.776 62.06 143.167 62.1402C140.483 62.1867 137.801 62.2335 135.117 62.2803C130.766 62.2866 126.415 62.2923 122.064 62.2989C117.908 62.3042 113.756 62.3039 109.602 62.3033C107.758 62.303 105.91 62.303 104.067 62.303C102.1 62.3033 100.134 62.3033 98.1666 62.3033C93.675 62.3033 89.1818 62.3033 84.6886 62.3067C80.0659 62.3105 75.4447 62.3146 70.8235 62.3181C67.2021 62.3215 63.5839 62.3215 59.9641 62.3294C55.8132 62.3391 51.6639 62.3542 47.5146 62.3661C47.1259 62.3671 46.8012 62.4284 46.8012 62.5057C46.8012 62.5852 47.1259 62.6421 47.5146 62.6458C48.2568 62.6534 48.999 62.6656 49.7428 62.6647C50.1987 62.6644 50.6546 62.6638 51.1121 62.6634C52.6956 62.6619 54.276 62.66 55.8596 62.6581C57.4688 62.6565 59.0763 62.6543 60.6871 62.6512C65.9737 62.6405 71.2602 62.6295 76.5468 62.6182C77.7401 62.6182 78.9334 62.6182 80.1282 62.6182C86.0066 62.6179 91.8851 62.6216 97.7619 62.6251C103.412 62.6285 109.06 62.6333 114.709 62.6361C105.558 62.7954 96.4086 62.9551 87.2575 63.1144C71.225 63.3932 55.1958 63.6798 39.1649 63.967C38.5427 63.978 38.0148 64.0082 37.5621 64.0971C37.1382 64.1807 36.8967 64.2948 36.8967 64.4127C36.8967 64.5305 37.1382 64.6449 37.5621 64.7276C37.9524 64.8045 38.5938 64.8687 39.1649 64.858C57.9854 64.5217 76.8059 64.1892 95.6297 63.8633C113.065 63.5613 130.499 63.258 147.932 62.957C155.874 62.8203 163.821 62.6917 171.768 62.5629C176.601 62.5374 181.435 62.5117 186.269 62.4856C190.577 62.4629 194.88 62.4403 199.187 62.4177C200.502 62.4105 201.819 62.4048 203.133 62.3913C211.848 62.3024 220.564 62.2125 229.278 62.1235C233.57 62.0798 237.865 62.0359 242.157 61.9919C243.507 61.978 244.853 61.9655 246.203 61.9488C248.321 61.9224 250.441 61.8963 252.56 61.8699C255.961 61.8592 259.361 61.8489 262.762 61.8388C268.215 61.8215 273.67 61.8049 279.123 61.7785C293.216 61.71 307.312 61.6421 321.406 61.5921C322.938 61.5864 324.472 61.5849 325.996 61.6116C326.849 61.6392 327.669 61.682 328.492 61.7385C329.005 61.7728 329.643 61.7492 330.101 61.6967C330.566 61.643 330.917 61.5541 331.059 61.4516C331.208 61.3463 331.129 61.2307 330.848 61.1361C330.555 61.0374 330.13 60.9865 329.602 60.9475C329.344 60.9284 329.088 60.9108 328.829 60.8941C337.865 60.7791 346.899 60.666 355.934 60.5541C357.441 60.5355 358.949 60.5245 360.454 60.5116C361.86 60.5 363.258 60.4812 364.655 60.4513C365.213 60.4394 365.766 60.4227 366.318 60.4057C367.113 60.3812 367.899 60.3388 368.684 60.3058C369.13 60.2869 369.54 60.2184 369.764 60.1424C370.024 60.0553 370.042 59.9661 369.948 59.8693C369.844 59.7637 369.516 59.6873 369.191 59.6056C369.132 59.5908 369.074 59.5758 369.015 59.5607C368.788 59.516 368.521 59.4859 368.212 59.4689C368.055 59.4604 367.894 59.456 367.732 59.456C367.411 59.456 367.091 59.4727 366.812 59.5047C366.427 59.549 366.134 59.6204 365.998 59.7037C365.986 59.7043 365.974 59.7049 365.962 59.7055C365.456 59.7297 364.946 59.7467 364.434 59.7615C361.388 59.8328 358.32 59.8492 355.264 59.8957C353.027 59.9299 350.794 59.9639 348.557 59.9984C345.751 60.0418 342.942 60.0849 340.132 60.127C332.905 60.2363 325.678 60.3466 318.451 60.4532C304.903 60.6527 291.359 60.8605 277.806 61.0468C276.176 61.0695 274.545 61.0918 272.915 61.1141C271.129 61.1245 269.341 61.1304 267.556 61.1386C263.762 61.1562 259.969 61.1741 256.177 61.1917C260.884 61.1172 265.592 61.0431 270.299 60.9676C275.032 60.8919 279.769 60.8196 284.504 60.747C291.766 60.6358 299.026 60.517 306.291 60.4133C313.141 60.3152 319.987 60.214 326.834 60.1157C330.131 60.0691 333.431 60.0233 336.728 59.9771C338.436 59.9535 340.143 59.928 341.854 59.9089C342.995 59.8963 344.135 59.8818 345.273 59.8611C346.365 59.8407 347.447 59.8039 348.531 59.775C348.968 59.7631 349.393 59.7492 349.823 59.731C350.315 59.7096 350.767 59.6622 351.223 59.6235C351.769 59.5773 352.154 59.4871 352.498 59.3972C352.735 59.3363 352.855 59.2747 353.01 59.204C353.096 59.1637 353.181 59.1235 353.267 59.0833C353.28 59.0735 353.287 59.0638 353.296 59.0544C354.341 58.9771 355.102 58.7744 355.102 58.5481C355.102 58.2489 353.853 58.0141 352.352 58.0079C350.329 58 348.304 57.9956 346.28 57.9947C345.801 57.9943 345.346 58.0198 344.95 58.0632C343.691 58.0713 342.43 58.0786 341.173 58.0861C339.006 58.099 336.84 58.1119 334.672 58.1251C335.704 58.0937 336.736 58.061 337.768 58.0292C340.73 58.0185 343.692 58.0069 346.655 57.9918C347.494 57.9874 348.246 57.9067 348.717 57.7832C348.793 57.7841 348.87 57.7844 348.945 57.786C349.358 57.7989 349.763 57.8146 350.172 57.8334C351.05 57.873 351.951 57.7942 352.317 57.6351C352.939 57.6301 353.563 57.6248 354.185 57.6166C354.835 57.6075 355.406 57.571 355.876 57.479C356.324 57.391 356.578 57.2706 356.578 57.1458C356.578 57.0453 356.391 56.9478 356.089 56.8677C356.134 56.868 356.179 56.8689 356.222 56.8696C357.964 56.8985 359.712 56.9108 361.448 56.9494C362.47 56.9821 363.501 57.0198 364.479 57.0864C364.532 57.1207 364.576 57.1553 364.615 57.1905C364.621 57.2103 364.627 57.2304 364.634 57.2505C364.672 57.3655 364.843 57.467 365.267 57.55C365.669 57.6295 366.224 57.6747 366.792 57.6747C367.363 57.6747 367.916 57.6295 368.318 57.55C368.689 57.4777 369.005 57.357 368.951 57.2505C368.898 57.1468 368.831 57.0449 368.74 56.9428C368.65 56.8448 368.375 56.7492 368.178 56.6584C368.084 56.6345 367.993 56.6103 367.899 56.5861C367.711 56.5239 367.455 56.4742 367.137 56.4365C366.747 56.3803 366.358 56.34 365.901 56.3067C364.963 56.2388 363.983 56.2065 363.002 56.1697C361.539 56.1141 360.032 56.1012 358.549 56.0858C356.209 56.0616 353.874 56.0189 351.538 55.9821C347.904 55.9252 344.273 55.8755 340.636 55.8297C337.244 55.7866 333.857 55.737 330.465 55.703C325.64 55.6543 320.809 55.6062 315.983 55.5578C312.872 55.5267 309.761 55.4887 306.65 55.4642C303.041 55.4362 299.432 55.4073 295.824 55.3787C290.281 55.3353 284.737 55.2916 279.195 55.2476C276.81 55.2294 274.428 55.2024 272.041 55.1917C263.452 55.1552 254.863 55.1188 246.275 55.082C241.325 55.061 236.372 55.0399 231.422 55.0192C229.941 55.0126 228.453 55 226.967 55C226.804 55 226.641 55.0003 226.478 55.0006C210.231 55.033 193.978 55.061 177.731 55.098C177.222 55.099 176.712 55.1075 176.205 55.1128C174.815 55.126 173.428 55.1392 172.036 55.1527C167.421 55.1974 162.807 55.242 158.194 55.2869C147.281 55.3919 136.371 55.4981 125.458 55.6034C122.395 55.6332 119.335 55.6625 116.272 55.6923C115.338 55.7014 114.413 55.7197 113.481 55.7373C111.062 55.7156 108.644 55.6942 106.225 55.6728C98.197 55.6012 90.1703 55.5299 82.1453 55.4588C80.2034 55.4415 78.2631 55.4243 76.3229 55.4073C74.261 55.3887 72.1928 55.3815 70.1277 55.3724C65.6841 55.3517 61.2389 55.3394 56.7953 55.3206C56.7825 55.3206 56.7697 55.3206 56.7553 55.3206C55.6868 55.3206 54.8023 55.5047 54.8023 55.7121C54.8023 55.929 55.7092 56.099 56.7953 56.1037C61.2389 56.1229 65.6841 56.1367 70.1277 56.1568C72.1928 56.1663 74.261 56.1735 76.3229 56.1926C78.2631 56.2102 80.2034 56.2275 82.1453 56.2458C83.1338 56.2546 84.1224 56.264 85.1109 56.2728C75.0576 56.4623 65.0043 56.6527 54.951 56.8422C51.7135 56.9035 48.4776 56.9645 45.2416 57.0255C42.3176 57.0808 39.3984 57.1461 36.4824 57.2156C32.3043 57.2027 28.1279 57.1879 23.9514 57.1744C22.9869 57.171 22.1855 57.3344 22.1855 57.5211C22.1855 57.5361 22.1983 57.5506 22.2079 57.5654C20.5571 57.6059 18.908 57.6474 17.2556 57.687C17.0732 57.6917 16.8893 57.6964 16.7069 57.7011C16.3534 57.7206 16.0495 57.7558 15.792 57.8058C15.4065 57.8815 15.1874 57.9859 15.1874 58.0927C15.1874 58.2002 15.4065 58.3045 15.792 58.3803C16.1423 58.4485 16.7453 58.5113 17.2556 58.4991C22.8829 58.3639 28.5022 58.2209 34.1294 58.0855C36.46 58.0289 38.7922 57.9708 41.1276 57.9199C54.7463 57.9604 68.365 57.9972 81.9869 58.033C93.7486 58.0635 105.512 58.0845 117.273 58.1047C118.894 58.1078 120.516 58.1109 122.136 58.1138C109.899 58.2291 97.6627 58.3444 85.426 58.4595C77.9352 58.5302 70.446 58.6006 62.9553 58.6713C52.5517 58.769 42.1561 58.8988 31.7541 59.0167C31.0823 59.0245 30.484 59.0647 29.9978 59.1597C29.5355 59.2511 29.27 59.3762 29.27 59.505C29.27 59.7599 30.4024 60.0088 31.7541 59.9931C40.331 59.8963 48.9063 59.7929 57.4847 59.7043C50.4786 59.7979 43.4725 59.8913 36.4696 59.9849C31.471 60.0515 26.5091 60.1848 21.5344 60.2948C21.1106 60.3036 20.7618 60.3218 20.4483 60.3828C20.1604 60.439 19.9973 60.5167 19.9973 60.5962C19.9973 60.6763 20.1604 60.7533 20.4483 60.8096C20.7091 60.8611 21.1521 60.9064 21.5344 60.8985C26.5539 60.7885 31.5653 60.6559 36.6072 60.5889C40.371 60.5399 44.1331 60.4912 47.8937 60.4419C56.9169 60.324 65.9369 60.2071 74.96 60.0886C76.1549 60.0732 77.3466 60.0531 78.5447 60.0494C81.5503 60.0402 84.5542 60.0305 87.5598 60.0214C92.5233 60.006 97.4868 59.9903 102.45 59.9749C98.8256 60.0399 95.2026 60.1047 91.5795 60.1697C87.7118 60.2389 83.8456 60.3146 79.9683 60.3658C72.7382 60.461 65.5098 60.5572 58.2813 60.6527C58.1438 60.577 57.7839 60.5154 57.3632 60.5154C57.3456 60.5154 57.328 60.5157 57.3104 60.5157C47.5034 60.6304 37.6981 60.7474 27.8943 60.8715C27.5152 60.8759 27.1809 60.9079 26.9858 60.9736C26.901 61.0019 26.8674 61.0346 26.8578 61.0682C26.7554 61.0695 26.6531 61.0704 26.5507 61.0714C26.5795 61.0544 26.5987 61.0362 26.5987 61.0167C26.5987 60.9252 26.186 60.8313 25.6949 60.8382C21.6752 60.8973 17.6603 60.9617 13.6454 61.0245C9.43531 61.0908 5.23964 61.1842 1.04877 61.2825C0.717659 61.2901 0.437732 61.3118 0.25858 61.3718C0.03784 61.4453 0.133815 61.5271 0.400943 61.5893C0.628082 61.6414 0.828027 61.6983 1.11275 61.7392C1.11595 61.7395 1.12075 61.7401 1.12395 61.7408C1.09036 61.7408 1.05517 61.7407 1.01997 61.7411C0.564098 61.7423 0.154609 61.8014 0.0346418 61.8884Z" fill="black"/>
</svg>
