<svg width="15" height="161" viewBox="0 0 15 161" fill="none" xmlns="http://www.w3.org/2000/svg">
<path d="M12 128.241L12 126.396L9.51989 126.396L8.41193 125.489L12 123.098L12 120.891L7.1804 124.168L3.27273 120.929L3.27273 123.141L7.12074 126.281L7.12074 126.396L3.27273 126.396L3.27273 128.241L12 128.241ZM12 117.968L12 112.07L10.4787 112.07L10.4787 116.123L8.39489 116.123L8.39489 112.39L6.87358 112.39L6.87358 116.123L4.79403 116.123L4.79403 112.087L3.27273 112.087L3.27273 117.968L12 117.968ZM12 108.62L12 102.723L10.4787 102.723L10.4787 106.775L8.39489 106.775L8.39489 103.042L6.87358 103.042L6.87358 106.775L4.79403 106.775L4.79403 102.74L3.27273 102.74L3.27273 108.62L12 108.62ZM12 99.2727L12 97.4276L9.17045 97.4276L9.17045 95.8764C9.17045 93.8693 7.97301 92.7017 6.23011 92.7017C4.49574 92.7017 3.27273 93.848 3.27273 95.8295L3.27273 99.2727L12 99.2727ZM7.69176 97.4276L4.78125 97.4276L4.78125 96.1832C4.78125 95.1179 5.36079 94.6023 6.23011 94.6023C7.09517 94.6023 7.69176 95.1179 7.69176 96.1747L7.69176 97.4276ZM5.78267 79.9915L5.78267 78.223C4.22727 78.2486 3.15341 79.527 3.15341 81.4702C3.15341 83.3835 4.21023 84.7855 5.79545 84.777C7.08238 84.7812 7.8196 83.8736 8.17329 82.3991L8.41193 81.4489C8.64204 80.4986 8.91477 79.9702 9.50284 79.9659C10.142 79.9702 10.5767 80.5753 10.5767 81.5128C10.5767 82.4716 10.1335 83.1619 9.25994 83.2216L9.25994 85.0071C11.1477 84.9602 12.1236 83.6094 12.1236 81.4915C12.1236 79.3608 11.1051 78.108 9.5071 78.1037C8.05397 78.108 7.28267 79.2031 6.94176 80.7202L6.75426 81.5043C6.57954 82.2628 6.29829 82.8977 5.67187 82.8849C5.10937 82.8849 4.69602 82.3864 4.69602 81.483C4.69602 80.6009 5.09659 80.0597 5.78267 79.9915ZM6.32812 67.1623C4.3125 67.4052 3.15341 68.9308 3.15341 70.9506C3.15341 73.256 4.78125 75.016 7.63636 75.016C10.483 75.016 12.1193 73.2859 12.1193 70.9506C12.1193 68.7134 10.6321 67.3626 9.02557 67.1623L9.01704 69.0288C9.95028 69.2035 10.4872 69.9364 10.4872 70.9208C10.4872 72.2461 9.50284 73.1452 7.63636 73.1452C5.82102 73.1452 4.78551 72.2589 4.78551 70.908C4.78551 69.8981 5.36932 69.1694 6.32812 69.0288L6.32812 67.1623ZM12 63.8391L12 61.994L8.90625 61.994L8.90625 60.6474L12 58.994L12 56.957L8.60795 58.8107C8.18182 57.8178 7.31676 57.2681 6.12358 57.2681C4.3892 57.2681 3.27272 58.4144 3.27272 60.396L3.27272 63.8391L12 63.8391ZM7.42329 61.994L4.78125 61.994L4.78125 60.7496C4.78125 59.6843 5.25426 59.1687 6.12358 59.1687C6.98863 59.1687 7.42329 59.6843 7.42329 60.7411L7.42329 61.994ZM7.63636 45.9442C4.78125 45.9442 3.15341 47.717 3.15341 50.0309C3.15341 52.3576 4.78125 54.1175 7.63636 54.1175C10.4787 54.1175 12.1193 52.3576 12.1193 50.0309C12.1193 47.717 10.4915 45.9442 7.63636 45.9442ZM7.63636 47.815C9.48579 47.815 10.4872 48.6928 10.4872 50.0309C10.4872 51.3732 9.48579 52.2468 7.63636 52.2468C5.78693 52.2468 4.78551 51.3732 4.78551 50.0309C4.78551 48.6928 5.78693 47.815 7.63636 47.815ZM12 42.5774L12 36.9908L10.4787 36.9908L10.4787 40.7322L3.27272 40.7322L3.27272 42.5774L12 42.5774ZM12 33.7688L12 28.1822L10.4787 28.1822L10.4787 31.9237L3.27272 31.9237L3.27272 33.7688L12 33.7688ZM3.27272 23.1151L3.27272 24.9602L12 24.9602L12 23.1151L3.27272 23.1151ZM3.27272 12.2972L3.27272 14.1339L8.76136 14.1339L8.76136 14.2106L3.27272 17.9776L3.27272 19.5969L12 19.5969L12 17.7518L6.5071 17.7518L6.5071 17.6879L12 13.891L12 12.2972L3.27272 12.2972ZM6.09374 2.98579L6.09374 1.11079C4.36789 1.34943 3.1534 2.87074 3.1534 4.84375C3.1534 7.14915 4.81534 8.92614 7.64488 8.92614C10.4062 8.92614 12.1193 7.2642 12.1193 4.8054C12.1193 2.60227 10.7258 1.02983 8.42897 1.02983L7.32954 1.02983L7.32954 4.68182L8.71874 4.68182L8.71874 2.80682C9.80113 2.83239 10.4872 3.5696 10.4872 4.79687C10.4872 6.18182 9.4517 7.0554 7.62784 7.0554C5.81249 7.0554 4.78551 6.14773 4.78551 4.81392C4.78551 3.86364 5.27556 3.22017 6.09374 2.98579Z" fill="#1C1C1C"/>
<path d="M2.00003 155.135L7.86488 161L13.7297 155.135L12.6045 154.004L8.68207 157.932L8.68207 137L7.0477 137L7.0477 157.932L3.11894 154.004L2.00003 155.135Z" fill="#1C1C1C"/>
</svg>
