<svg width="90" height="26" viewBox="0 0 90 26" fill="none" xmlns="http://www.w3.org/2000/svg">
<path d="M19.145 20.6561C19.145 20.6561 18.239 21.9981 16.161 21.9731C15.098 21.9571 14.282 21.2521 13.856 20.7391C17.559 19.5041 20.086 16.1811 20.086 12.1941C20.086 7.13009 16.328 2.91309 10.617 2.91309C4.734 2.91309 1 7.12909 1 12.1941C1 16.8071 4.508 20.5371 9.211 21.1591C10.613 22.6471 12.863 25.0001 16.063 25.0001C19.442 25.0001 20.938 22.8301 20.938 22.8301L19.145 20.6561ZM5.039 12.2371C5.039 9.10509 7.211 6.38109 10.578 6.38109C13.949 6.38109 16.004 9.10509 16.004 12.2371C16.004 15.3731 13.668 17.7371 10.578 17.7371C7.488 17.7371 5.039 15.3731 5.039 12.2371Z" fill="white"/>
<path d="M42.3521 7.35059H38.5081V20.9246H42.3521V7.35059Z" fill="white"/>
<path d="M42.84 3.182C42.84 4.406 41.801 5.427 40.445 5.427C39.089 5.427 38.02 4.406 38.02 3.182C38.02 1.962 39.09 1 40.445 1C41.8 1 42.84 1.962 42.84 3.182Z" fill="white"/>
<path d="M31.754 7.35059L31.738 14.4546C31.562 16.5376 30.633 17.7256 28.679 17.7256C26.491 17.7256 25.906 16.3476 25.906 14.0506V7.35059H22.062V15.1486C22.062 18.8736 24.226 21.1176 27.617 21.1176C30.691 21.1176 31.879 19.3596 31.957 19.2336V20.9236H35.598V7.35059H31.754Z" fill="white"/>
<path d="M49.1061 2.11328H45.2581V20.9253H49.1061V2.11328Z" fill="white"/>
<path d="M55.8599 2.11328H52.0129V20.9253H55.8599V2.11328Z" fill="white"/>
<path d="M82.9221 13.1083L88.5311 7.32028H83.9141L78.1721 12.8473V2.11328H74.3281V20.9253H78.1721V17.4643L80.0861 15.5523L84.3521 20.9013H89.0001L82.9221 13.1083Z" fill="white"/>
<path d="M65.1169 7.11426C60.6789 7.11426 57.7729 10.2593 57.7729 14.1383C57.7729 18.0163 60.6789 21.1033 65.1169 21.1033C69.5469 21.1033 72.453 18.0163 72.453 14.1383C72.453 10.2583 69.5469 7.11426 65.1169 7.11426ZM65.1169 17.9153C63.0309 17.9153 61.664 16.2253 61.664 14.1383C61.664 12.0483 62.9299 10.3253 65.1169 10.3253C67.3039 10.3253 68.57 12.0473 68.57 14.1383C68.57 16.2253 67.2029 17.9153 65.1169 17.9153Z" fill="white"/>
</svg>
