<svg width="1439" height="1439" viewBox="0 0 1439 1439" fill="none" xmlns="http://www.w3.org/2000/svg">
<g opacity="0.1">
<circle cx="643.467" cy="795.495" r="401" transform="rotate(135 643.467 795.495)" stroke="#1C1C1C" stroke-width="2" stroke-dasharray="8 12"/>
<path d="M360.271 1078.69C252.681 971.102 252.524 796.823 359.917 689.429C467.311 582.036 641.589 582.193 749.18 689.783C856.77 797.373 856.927 971.652 749.533 1079.05C642.14 1186.44 467.861 1186.28 360.271 1078.69Z" stroke="#1C1C1C"/>
<path d="M360.271 1078.69C161.689 880.11 161.531 558.304 359.917 359.918C558.303 161.532 880.109 161.689 1078.69 360.271C1277.27 558.853 1277.43 880.659 1079.04 1079.05C880.659 1277.43 558.853 1277.27 360.271 1078.69Z" stroke="#1C1C1C"/>
</g>
</svg>
