<svg width="864" height="1440" viewBox="0 0 864 1440" fill="none" xmlns="http://www.w3.org/2000/svg">
<g opacity="0.12">
<circle r="401" transform="matrix(-0.707107 -0.707107 -0.707107 0.707107 68.4861 643.986)" stroke="white" stroke-width="2" stroke-dasharray="8 12"/>
<path d="M-214.71 360.79C-322.3 468.38 -322.457 642.659 -215.064 750.052C-107.67 857.446 66.6086 857.289 174.199 749.699C281.789 642.108 281.946 467.83 174.552 360.436C67.1585 253.043 -107.12 253.2 -214.71 360.79Z" stroke="white"/>
<path d="M-214.71 360.79C-413.292 559.372 -413.45 881.178 -215.064 1079.56C-16.6777 1277.95 305.128 1277.79 503.71 1079.21C702.292 880.628 702.45 558.822 504.064 360.436C305.678 162.05 -16.1283 162.208 -214.71 360.79Z" stroke="white"/>
</g>
</svg>
