<svg width="77" height="77" viewBox="0 0 77 77" fill="none" xmlns="http://www.w3.org/2000/svg">
<path fill-rule="evenodd" clip-rule="evenodd" d="M44.0292 72.055C44.1181 68.166 44.4263 64.2246 44.012 60.3506C43.8742 59.058 42.0745 59.4054 41.9073 60.5048C41.4644 63.4365 41.4594 66.4476 41.4424 69.4354C33.2589 60.7865 27.925 49.8072 26.7109 37.8659C25.3228 24.2057 29.9507 12.7391 36.4855 1.16176C36.7988 0.60725 36.0553 -0.140008 35.5748 0.387408C18.4701 19.1326 21.8424 48.8578 36.7929 67.8588C36.7929 67.8588 35.6445 67.3207 35.0691 67.0528C33.7413 66.4349 32.6796 68.6876 33.9801 69.3863C36.7595 70.8807 39.5397 72.3743 42.3183 73.8679C43.4584 74.4801 44.9436 73.0984 44.0292 72.055Z" fill="white"/>
</svg>
