<svg width="120" height="32" viewBox="0 0 120 32" fill="none" xmlns="http://www.w3.org/2000/svg">
<path d="M25.036 26.2078C25.036 26.2078 23.81 27.9978 21 27.9658C19.563 27.9448 18.459 27.0048 17.883 26.3198C22.891 24.6738 26.308 20.2428 26.308 14.9248C26.308 8.1718 21.227 2.5498 13.504 2.5498C5.55 2.5498 0.5 8.1718 0.5 14.9248C0.5 21.0758 5.244 26.0498 11.604 26.8788C13.5 28.8628 16.542 31.9998 20.869 31.9998C25.438 31.9998 27.461 29.1048 27.461 29.1048L25.036 26.2078ZM5.962 14.9828C5.962 10.8068 8.899 7.1748 13.452 7.1748C18.011 7.1748 20.789 10.8068 20.789 14.9828C20.789 19.1638 17.63 22.3158 13.452 22.3158C9.274 22.3158 5.962 19.1638 5.962 14.9828Z" fill="#1C1C1C"/>
<path d="M56.4189 8.46777H51.2209V26.5668H56.4189V8.46777Z" fill="#1C1C1C"/>
<path d="M57.079 2.909C57.079 4.541 55.674 5.903 53.841 5.903C52.008 5.903 50.561 4.541 50.561 2.909C50.561 1.283 52.008 0 53.841 0C55.674 0 57.079 1.283 57.079 2.909Z" fill="#1C1C1C"/>
<path d="M42.0879 8.46777L42.0669 17.9398C41.8289 20.7168 40.5719 22.2998 37.9309 22.2998C34.9729 22.2998 34.1809 20.4628 34.1809 17.4008V8.46777H28.9829V18.8648C28.9829 23.8318 31.9099 26.8248 36.4949 26.8248C40.6519 26.8248 42.2579 24.4798 42.3639 24.3118V26.5658H47.2869V8.46777H42.0879Z" fill="#1C1C1C"/>
<path d="M65.5521 1.48291H60.3491V26.5659H65.5521V1.48291Z" fill="#1C1C1C"/>
<path d="M74.6829 1.48291H69.4819V26.5659H74.6829V1.48291Z" fill="#1C1C1C"/>
<path d="M111.279 16.1449L118.866 8.42591H112.623L104.857 15.7959V1.48291H99.6589V26.5659H104.857V21.9519L107.445 19.4019L113.214 26.5359H119.5L111.279 16.1449Z" fill="#1C1C1C"/>
<path d="M87.2039 8.15088C81.2029 8.15088 77.2729 12.3429 77.2729 17.5179C77.2729 22.6879 81.2029 26.8029 87.2039 26.8029C93.1929 26.8029 97.1239 22.6879 97.1239 17.5179C97.1239 12.3439 93.1929 8.15088 87.2039 8.15088ZM87.2039 22.5549C84.3839 22.5549 82.5339 20.2999 82.5339 17.5179C82.5339 14.7299 84.2459 12.4349 87.2039 12.4349C90.1619 12.4349 91.8729 14.7309 91.8729 17.5179C91.8729 20.2999 90.0229 22.5549 87.2039 22.5549Z" fill="#1C1C1C"/>
</svg>
