<svg width="303" height="257" viewBox="0 0 303 257" fill="none" xmlns="http://www.w3.org/2000/svg">
<path opacity="0.04" d="M130.329 96.4893C130.329 142.829 119.202 179.107 96.9467 205.326C74.3868 231.544 42.8334 248.769 2.28656 257V209.441C33.0778 199.991 53.8085 182.918 64.4788 158.224C70.576 145.115 73.0149 132.463 71.7955 120.269H0.00012207V0H130.329V96.4893ZM302.434 96.4893C302.434 142.219 291.611 178.345 269.966 204.868C248.015 231.391 216.157 248.769 174.391 257V209.441C205.487 199.686 226.37 182.918 237.04 159.139C242.528 146.639 244.814 133.683 243.9 120.269H172.104V0H302.434V96.4893Z" fill="#1C1C1C"/>
</svg>
